<?xml version="1.0" encoding="UTF-8"?>
<svg width="192px" height="200px" viewBox="0 0 192 200" version="1.1" xmlns="http://www.w3.org/2000/svg" xmlns:xlink="http://www.w3.org/1999/xlink">
    <title>Avatar - Person - Happy</title>
    <g id="Avatar---Person---Happy" stroke="none" stroke-width="1" fill="none" fill-rule="evenodd">
        <g id="child-duotone" transform="translate(70.000000, 60.000000)">
            <path d="M17,10 C17,4.4771525 21.2532949,0 26.5,0 C31.7467051,0 36,4.4771525 36,10 C36,15.5228475 31.7467051,20 26.5,20 C21.2532949,20 17,15.5228475 17,10 L17,10 Z" id="Path" fill="#ABDBEB"></path>
            <path d="M1.26932468,16.4858978 C-0.423108228,14.7733951 -0.423108228,11.9968797 1.26932468,10.284377 C2.9617576,8.57187433 5.70573351,8.57187433 7.39816642,10.284377 L19.1277349,22.1544111 L32.8722651,22.1544111 L44.6018336,10.284377 C46.2942666,8.57187439 49.0382424,8.57187442 50.7306753,10.2843771 C52.4231082,11.9968797 52.4231082,14.7733951 50.7306754,16.4858978 L37.91644,29.4507209 L37.91644,75.6153631 C37.91644,78.0369312 35.9763775,80 33.5831891,80 L31.4165637,80 C29.0233753,80 27.0833128,78.0369312 27.0833128,75.6153631 L27.0833128,50.6545508 L24.9166873,50.6545508 L24.9166873,75.6153631 C24.9166873,78.0369312 22.9766248,80 20.5834364,80 L18.416811,80 C16.0236226,80 14.0835601,78.0369312 14.0835601,75.6153631 L14.0835601,29.4507209 L1.26932468,16.4858978 Z" id="Path" fill="#000C6E"></path>
        </g>
    </g>
</svg>