<?xml version="1.0" encoding="UTF-8"?>
<svg width="93px" height="32px" viewBox="0 0 93 32" version="1.1" xmlns="http://www.w3.org/2000/svg" xmlns:xlink="http://www.w3.org/1999/xlink">
    <title>Group 9</title>
    <defs>
        <polygon id="path-1" points="0 31.7241379 92.9628614 31.7241379 92.9628614 0.0380894989 0 0.0380894989"></polygon>
    </defs>
    <g id="Symbols" stroke="none" stroke-width="1" fill="none" fill-rule="evenodd">
        <g id="Group-9">
            <polygon id="Fill-1" fill="#B12028" points="36 0 21 8.88232729 36 19"></polygon>
            <g id="Group-8">
                <path d="M35.8607591,20.8340011 C35.607132,21.275367 35.2564125,21.6617034 34.8714191,21.8849017 L19.5374686,30.7687896 C19.1514521,30.9919879 18.6444026,31.1030738 18.13633,31.1030738 C17.6282574,31.1030738 17.1200825,30.9919879 16.7351914,30.7687896 L1.40124092,21.8849017 C0.630128713,21.4384024 0,20.341815 0,19.4488164 L0,0.0570521147 L18.13633,10.5650311 L20.0942409,11.6988867 L35.8607591,20.8340011 Z" id="Fill-2" fill="#E91D2C"></path>
                <mask id="mask-2" fill="white">
                    <use xlink:href="#path-1"></use>
                </mask>
                <g id="Clip-5"></g>
                <path d="M45.8893102,31.2023837 L50.7286865,31.2023837 L50.7286865,10.2119897 L45.8893102,10.2119897 L45.8893102,31.2023837 Z M51.2486271,4.07136703 C51.2486271,4.98140832 50.955099,5.70367147 50.3688614,6.23866979 C49.7819076,6.77418145 49.0889604,7.04132128 48.289099,7.04132128 C47.46233,7.04132128 46.755571,6.77418145 46.1693333,6.23866979 C45.5825842,5.70367147 45.2894653,4.98140832 45.2894653,4.07136703 C45.2894653,3.13514563 45.5825842,2.3994331 46.1693333,1.86392144 C46.755571,1.32902578 47.46233,1.06126995 48.289099,1.06126995 C49.0889604,1.06126995 49.7819076,1.32902578 50.3688614,1.86392144 C50.955099,2.3994331 51.2486271,3.13514563 51.2486271,4.07136703 L51.2486271,4.07136703 Z" id="Fill-4" fill="#292865" mask="url(#mask-2)"></path>
                <path d="M59.0871766,20.6469211 C59.0871766,22.7879411 59.5933053,24.466651 60.606995,25.6838723 C61.6201733,26.9017096 63.0198795,27.5100123 64.8065231,27.5100123 C65.5796815,27.5100123 66.2394802,27.4767481 66.7862261,27.4096038 C67.3325627,27.3431782 67.7793515,27.2691552 68.1262855,27.1889722 L68.1262855,15.1484812 C67.6994472,14.8543399 67.1325462,14.5803214 66.4262987,14.3258096 C65.7195396,14.0717085 64.9666386,13.944504 64.1666749,13.944504 C62.4068366,13.944504 61.1201832,14.5464412 60.3071238,15.7505211 C59.4934505,16.9544984 59.0871766,18.5870081 59.0871766,20.6469211 L59.0871766,20.6469211 Z M72.9655594,30.5602522 C72.0056848,30.8550095 70.7989356,31.1220466 69.3459257,31.3629037 C67.8924043,31.6037607 66.3663449,31.7241893 64.7666221,31.7241893 C63.1130842,31.7241893 61.6331667,31.4695748 60.3270743,30.9615779 C59.0204703,30.4536837 57.9074373,29.7243366 56.9874637,28.7742551 C56.0675924,27.8247896 55.3608333,26.6740966 54.867698,25.3226894 C54.3741535,23.9718982 54.1278927,22.453041 54.1278927,20.7673496 C54.1278927,19.1086597 54.3341502,17.6035599 54.7477904,16.2521527 C55.1608168,14.9013615 55.7677211,13.7437898 56.5675825,12.7806696 C57.3674439,11.817344 58.3404142,11.0748555 59.4872096,10.5531012 C60.6331865,10.0313469 61.9530908,9.77046981 63.4467178,9.77046981 C64.4596914,9.77046981 65.3526551,9.89089834 66.1264274,10.1317554 C66.8994835,10.3725098 67.566137,10.6402656 68.1262855,10.9344069 L68.1262855,0.860607075 L72.9655594,0.0579555853 L72.9655594,30.5602522 Z" id="Fill-6" fill="#292865" mask="url(#mask-2)"></path>
                <path d="M84.8837498,27.7909095 C86.3768653,27.7909095 87.5096442,27.7107265 88.2834165,27.5500524 L88.2834165,22.1720411 C88.0165914,22.0917554 87.6297564,22.0115724 87.1236277,21.9312867 C86.6165782,21.851001 86.0567366,21.8108582 85.4436937,21.8108582 C84.9101459,21.8108582 84.3701525,21.851001 83.8239182,21.9312867 C83.2771723,22.0115724 82.784037,22.1588997 82.3442053,22.3727553 C81.904169,22.5871242 81.5504825,22.8882468 81.2842713,23.2757125 C81.0173439,23.6639996 80.8842383,24.1524897 80.8842383,24.7406696 C80.8842383,25.8914652 81.2443703,26.687238 81.9641228,27.1287066 C82.6840799,27.5702779 83.6570502,27.7909095 84.8837498,27.7909095 M84.4839215,9.69018413 C86.0837465,9.69018413 87.4297399,9.89089834 88.523334,10.2922241 C89.6164165,10.6936525 90.4894297,11.2554469 91.1430898,11.9780181 C91.796136,12.7003839 92.2628752,13.5769557 92.542796,14.6067068 C92.8228191,15.6369713 92.9628818,16.7677469 92.9628818,17.9980069 L92.9628818,30.7207209 C92.2161195,30.8813949 91.0892746,31.0757438 89.583268,31.3027408 C88.0765452,31.5297378 86.3768653,31.6438009 84.4839215,31.6438009 C83.2302119,31.6438009 82.084235,31.5233724 81.0443538,31.2827207 C80.0044726,31.0418636 79.1176475,30.6542953 78.384697,30.1187836 C77.6509281,29.583888 77.0777861,28.8883183 76.6647597,28.0317665 C76.2511195,27.1757282 76.044862,26.1190782 76.044862,24.8610981 C76.044862,23.6570182 76.2779248,22.6405111 76.744664,21.8108582 C77.2108917,20.9818212 77.8447036,20.305861 78.6446673,19.7841067 C79.4445287,19.2623524 80.3705386,18.8879255 81.4242317,18.6602098 C82.4773109,18.4332128 83.5771459,18.3191496 84.7239413,18.3191496 C85.2567729,18.3191496 85.8167168,18.3529271 86.4035683,18.4194554 C86.9899083,18.4865997 87.6165584,18.6000469 88.2834165,18.7606182 L88.2834165,17.9579667 C88.2834165,17.3960696 88.2166079,16.8610713 88.0832977,16.3525611 C87.9496805,15.8446669 87.7166178,15.3961143 87.383598,15.0080326 C87.049862,14.6204642 86.6098257,14.3194443 86.0636937,14.1049727 C85.5167432,13.8911171 84.830037,13.7838299 84.0038818,13.7838299 C82.8840964,13.7838299 81.8572086,13.8642183 80.9242416,14.024687 C79.9906607,14.185361 79.2307003,14.3728312 78.6446673,14.5866868 L78.0445155,10.6535097 C78.6576607,10.4395514 79.5506244,10.2257985 80.7244297,10.0112242 C81.8974165,9.79747126 83.1503076,9.69018413 84.4839215,9.69018413" id="Fill-7" fill="#292865" mask="url(#mask-2)"></path>
            </g>
        </g>
    </g>
</svg>